<svg id="svg8" xmlns="http://www.w3.org/2000/svg" xmlns:xlink="http://www.w3.org/1999/xlink" viewBox="0 0 197.65 52.55"><defs><style>.cls-1{font-size:11.71px;fill:#4d4e4e;font-family:Kalam-Regular, Kalam;}.cls-2{isolation:isolate;fill:url(#linear-gradient);}.cls-3{fill:#0878dc;}</style><linearGradient id="linear-gradient" x1="17.7" y1="44.53" x2="17.7" y2="1.79" gradientUnits="userSpaceOnUse"><stop offset="0" stop-color="#3655a5"/><stop offset="1" stop-color="#4ec5e0"/></linearGradient></defs><title>logo</title><text class="cls-1" transform="translate(47.54 15.16)"><tspan xml:space="preserve">Design  Develop  Deploy</tspan></text><path id="eventure" d="M66,37.69a9.12,9.12,0,0,0-14-4.43,9.09,9.09,0,0,0-3.29,4.43Zm-8.64-9.94A13,13,0,0,1,70.25,40.67l0,.79h-22a9.21,9.21,0,0,0,9.13,8.4,9,9,0,0,0,4.8-1.38,8.82,8.82,0,0,0,3.3-3.55l3.47,1.5a12.9,12.9,0,0,1-4.68,5.2,12.9,12.9,0,0,1-16-1.8,12.86,12.86,0,0,1,0-18.29,12.42,12.42,0,0,1,9.13-3.79Zm11,.29h3.91l6.45,16,6.48-16h3.91L78.67,53.72Zm41.76,9.65a9.17,9.17,0,0,0-8.64-6.18,8.83,8.83,0,0,0-5.37,1.75,9.11,9.11,0,0,0-3.3,4.43Zm-8.64-9.94a12.94,12.94,0,0,1,12.92,12.92l0,.79h-22a8.92,8.92,0,0,0,2.93,6,8.81,8.81,0,0,0,6.21,2.44,9.05,9.05,0,0,0,4.8-1.38,8.82,8.82,0,0,0,3.3-3.55l3.47,1.5a12.9,12.9,0,0,1-4.68,5.2,13,13,0,0,1-19.84-11,13,13,0,0,1,13-12.92Zm35.95,25.53h-3.77V38.14a6.38,6.38,0,0,0-1.94-4.68,6.56,6.56,0,0,0-9.33,0,6.37,6.37,0,0,0-2,4.68V53.28h-3.76V28.06h3.76v2.07A10.08,10.08,0,0,1,127,27.75a10.41,10.41,0,0,1,10.37,10.39V53.28Zm3.45-8.23a8.19,8.19,0,0,0,8.2,8.23V49.51a4.29,4.29,0,0,1-3.15-1.3,4.35,4.35,0,0,1-1.28-3.16V31.78H149V28H144.6V23.53h-3.77V45.05Zm9.91-17h3.76V43.19a6.63,6.63,0,0,0,13.25,0V28h3.76V53.23h-3.76v-2a10.1,10.1,0,0,1-6.63,2.39,10.43,10.43,0,0,1-10.38-10.39V28Zm35.68-.27v3.76H186a6.27,6.27,0,0,0-4.65,1.95,6.37,6.37,0,0,0-2,4.68V53.28h-3.77V28.06h3.77v2.07a10,10,0,0,1,6.6-2.38Zm21.3,9.94a9.17,9.17,0,0,0-8.64-6.18,8.83,8.83,0,0,0-5.37,1.75,9,9,0,0,0-3.3,4.43Zm-8.64-9.94A12.94,12.94,0,0,1,212,40.67l0,.79h-22a8.92,8.92,0,0,0,2.93,6,8.81,8.81,0,0,0,6.21,2.44,9.08,9.08,0,0,0,4.8-1.38,8.73,8.73,0,0,0,3.29-3.55l3.48,1.5a12.9,12.9,0,0,1-4.68,5.2,12.57,12.57,0,0,1-6.89,2,13,13,0,0,1-13-12.95,13,13,0,0,1,13-12.92Z" transform="translate(-14.35 -1.73)"/><path id="Shape_1_copy_2" data-name="Shape 1 copy 2" d="M51.8,15.72V5.9H42l4.16-4.16H56v9.82Z" transform="translate(-14.35 -1.73)"/><polygon class="cls-2" points="35.39 9.19 32.08 7.01 15.17 31.02 5.58 17.24 0.79 17.24 12.74 34.46 0 52.55 4.67 52.55 15.09 37.84 25.25 52.48 30.11 52.48 17.52 34.41 35.39 9.19"/><path class="cls-3" d="M100.68,14.34A1.39,1.39,0,1,1,99.29,13,1.39,1.39,0,0,1,100.68,14.34Z" transform="translate(-14.35 -1.73)"/><path class="cls-3" d="M146.26,14.34A1.39,1.39,0,1,1,144.87,13,1.39,1.39,0,0,1,146.26,14.34Z" transform="translate(-14.35 -1.73)"/></svg>